Coordinates
version=1
nRows=10
nColumns=33
inDegrees=yes

Units are S.I. units (second, meters, Newtons, ...)
Angles are in degrees.

endheader
time	ground_thorax_rot_x	ground_thorax_rot_y	ground_thorax_rot_z	ground_thorax_tx	ground_thorax_ty	ground_thorax_tz	clav_prot_r	clav_elev_r	scapula_abduction_r	scapula_elevation_r	scapula_upward_rot_r	scapula_winging_r	shoulder_elv_r	plane_of_elev_r	axial_rot_r	elbow_flexion_r	pro_sup_r	wrist_flex_r	wrist_dev_r	clav_prot_l	clav_elev_l	scapula_abduction_l	scapula_elevation_l	scapula_upward_rot_l	scapula_winging_l	shoulder_elv_l	plane_of_elev_l	axial_rot_l	elbow_flexion_l	pro_sup_l	wrist_flex_l	wrist_dev_l
      7.56000000	    -39.13413842	    -13.38982586	     15.98307828	   -194.28183052	    836.05790886	     -7.27555667	      4.75489750	    -45.00000000	     34.69806958	    -45.00000000	    -17.82476486	    610.35513928	  -2091.52794580	     21.87321565	   -179.99999979	   1444.51973630	    -64.72028378	     20.47800510	      8.13355409	     15.22938207	     39.84122439	    -36.43381705	    -45.00000000	    -40.32277047	   1887.86590023	  -2439.50229221	     14.62342920	    179.99999979	   -362.49204237	   -125.44248799	      9.42252708	    -21.45513362
      7.57000000	    -39.17560767	    -13.47161416	     15.99453368	   -194.41831687	    836.56253988	     -7.18893688	      4.64124481	    -45.00000000	     34.81511289	    -45.00000000	    -17.74836845	    610.42882241	  -2091.48336589	     21.83654075	   -179.99999979	   1444.51254248	    -64.80573033	     20.39153613	      8.38912170	     15.38149244	     39.53643052	    -36.23844021	    -45.00000000	    -40.12085479	   1887.92926336	  -2439.42894325	     14.66381666	    179.99999979	   -362.47903704	   -124.96638424	      9.11816811	    -21.39902560
      7.58000000	    -39.28474021	    -13.25576675	     15.81847676	   -194.54940478	    837.09302111	     -7.09929969	      4.76335238	    -45.00000000	     34.76415169	    -45.00000000	    -17.66617054	    610.31066205	  -2091.46590994	     21.93207440	   -179.99999979	   1444.61294812	    -64.94693918	     20.66524906	      8.10207525	     15.19004999	     39.96937818	    -36.53181130	    -45.00000000	    -40.19913765	   1887.94360548	  -2439.46100716	     14.57862535	    179.99999979	   -362.64385082	   -124.45135459	      9.28662054	    -21.54116050
      7.59000000	    -39.33041850	    -13.42781361	     15.83526532	   -194.67408538	    837.64690593	     -7.02550494	      4.59136020	    -45.00000000	     34.91145040	    -45.00000000	    -17.57067616	    610.42783262	  -2091.40118921	     21.80960173	   -179.99999979	   1444.52924492	    -64.96730750	     20.45707160	      8.48544945	     15.43190925	     39.45720633	    -36.22361634	    -45.00000000	    -39.95334640	   1887.99789460	  -2439.42258451	     14.73557460	    179.99999979	   -362.54180311	   -123.99789207	      8.89754056	    -21.41521682
      7.60000000	    -39.49086821	    -13.09448569	     15.56675472	   -194.78574090	    838.23207023	     -6.95471081	      4.84788449	    -45.00000000	     34.73183630	    -45.00000000	    -17.39560995	    610.16999104	  -2091.47871177	     22.06626402	   -179.99999979	   1444.75131559	    -65.12893831	     21.00101729	      7.93173314	     15.05817937	     40.27684853	    -36.83686351	    -45.00000000	    -40.09810737	   1888.00151047	  -2439.48373209	     14.36870739	    179.99999979	   -362.84402594	   -123.53819092	      9.24049587	    -21.70289005
      7.61000000	    -39.51544443	    -13.38469038	     15.75718116	   -194.87879560	    838.85327456	     -6.89321689	      4.63105896	    -45.00000000	     34.88515959	    -45.00000000	    -17.30479660	    610.27556981	  -2091.30577637	     21.80682140	   -179.99999979	   1444.70283541	    -65.12024023	     20.63027455	      8.44011055	     15.31271496	     39.61945111	    -36.45510673	    -45.00000000	    -39.90945273	   1888.05017403	  -2439.31428711	     14.49479055	    179.99999979	   -362.63613014	   -123.03129439	      8.79522589	    -21.47638713
      7.62000000	    -39.60850544	    -13.01989573	     15.27477305	   -194.94337868	    839.50806931	     -6.84263089	      4.72356405	    -45.00000000	     34.98853041	    -45.00000000	    -17.16564101	    610.24594966	  -2091.44794011	     21.94266205	   -179.99999979	   1444.61285164	    -65.24589525	     20.90354706	      8.09973212	     15.26283718	     40.01815999	    -36.55824206	    -45.00000000	    -39.86883752	   1888.07793843	  -2439.43051297	     14.74645285	    179.99999979	   -362.81102995	   -122.58968139	      8.99559608	    -21.68579984
      7.63000000	    -39.65516578	    -13.35011853	     15.56217017	   -194.97087856	    840.20806247	     -6.80617679	      4.57634277	    -45.00000000	     35.02123458	    -45.00000000	    -16.85626053	    610.23817980	  -2091.15326157	     21.78469078	   -179.99999979	   1444.77426865	    -65.24095666	     20.66641749	      8.53784627	     15.36179129	     39.61701869	    -36.55027307	    -45.00000000	    -39.55267499	   1888.23985121	  -2439.39978796	     14.42400840	    179.99999979	   -362.75071613	   -122.22326885	      8.62869374	    -21.52384858
      7.64000000	    -39.78857671	    -13.20150895	     15.30416245	   -194.95107306	    840.96881827	     -6.78700817	      4.62892376	    -45.00000000	     35.07685571	    -45.00000000	    -16.69087591	    610.19514387	  -2091.21914095	     21.85562458	   -179.99999979	   1444.77858257	    -65.32977237	     20.84244649	      8.29609586	     15.26332448	     39.93482456	    -36.58471303	    -45.00000000	    -39.61841354	   1888.21410230	  -2439.26834590	     14.53287793	    179.99999979	   -362.88762915	   -121.73919796	      8.75784442	    -21.65036557
      7.65000000	    -39.86633656	    -12.89140518	     14.91179476	   -194.87285357	    841.80387427	     -6.78867797	      4.67375539	    -45.00000000	     35.23496602	    -45.00000000	    -16.37647438	    610.16114601	  -2091.29587497	     21.91238259	   -179.99999979	   1444.64546102	    -65.37864264	     21.00457112	      8.32363922	     15.32304754	     39.88212988	    -36.71833752	    -45.00000000	    -39.37759505	   1888.27928529	  -2439.34401937	     14.68554369	    179.99999979	   -362.96003188	   -121.36392554	      8.69458938	    -21.77094944
